<svg xmlns="http://www.w3.org/2000/svg" viewBox="0 0 900 1100">
  <defs>
    <linearGradient id="bg" x1="0" y1="0" x2="1" y2="1">
      <stop offset="0" stop-color="#202834"/>
      <stop offset="1" stop-color="#050607"/>
    </linearGradient>
    <linearGradient id="skin" x1="0" y1="0" x2="1" y2="1">
      <stop offset="0" stop-color="#d6dde2"/>
      <stop offset="1" stop-color="#78838e"/>
    </linearGradient>
    <filter id="blur"><feGaussianBlur stdDeviation="34"/></filter>
  </defs>
  <rect width="900" height="1100" fill="url(#bg)"/>
  <circle cx="240" cy="260" r="190" fill="#9ef0ff" opacity=".14" filter="url(#blur)"/>
  <circle cx="710" cy="730" r="230" fill="#e5ff8a" opacity=".1" filter="url(#blur)"/>
  <path d="M0 850 C180 760 320 780 470 850 C620 920 730 900 900 800 L900 1100 L0 1100 Z" fill="#111821"/>
  <path d="M280 1000 C300 760 345 640 450 640 C555 640 605 760 624 1000 Z" fill="#161d27"/>
  <circle cx="450" cy="406" r="178" fill="url(#skin)"/>
  <path d="M285 382 C294 205 420 135 555 205 C648 252 664 350 628 468 C590 392 544 330 462 328 C382 326 328 360 285 382 Z" fill="#0a0d12"/>
  <path d="M355 530 C402 570 503 574 548 526 C526 612 380 616 355 530 Z" fill="#10151d" opacity=".55"/>
  <path d="M210 1000 C240 720 350 612 450 612 C560 612 684 730 715 1000 Z" fill="#090b0f"/>
  <path d="M250 910 L650 700 L705 1000 L250 1000 Z" fill="#9ef0ff" opacity=".08"/>
  <g opacity=".28" stroke="#ffffff" stroke-width="1">
    <path d="M120 140 H780"/>
    <path d="M120 250 H780"/>
    <path d="M120 360 H780"/>
    <path d="M120 470 H780"/>
    <path d="M120 580 H780"/>
    <path d="M120 690 H780"/>
    <path d="M120 800 H780"/>
    <path d="M120 910 H780"/>
  </g>
</svg>
